<?xml version="1.0" encoding="utf-8" ?><svg xmlns="http://www.w3.org/2000/svg" xmlns:xlink="http://www.w3.org/1999/xlink" width="1024" height="1024" viewBox="0 0 1024 1024"><path fill="#E1E1E1" d="M0 0L1024 0L1024 1024L0 1024L0 0Z"/><path d="M616.615 411.54C616.704 411.538 616.794 411.537 616.884 411.535L673.337 411.445C686.389 411.436 701.349 410.742 713.993 411.844C762.646 416.081 798.973 455.078 794.876 504.618C792.727 530.607 786.247 546.931 767.997 565.351C752.479 580.054 729.069 588.275 707.837 588.655C678.967 589.172 649.983 589.003 621.109 588.85C618.822 588.838 616.088 588.098 614.13 586.899C612.976 583.734 613.527 547.163 613.532 541.449L613.535 463.646L613.537 431.888C613.535 426.71 613.467 421.304 613.658 416.134C613.74 413.927 614.981 412.827 616.615 411.54Z"/><path fill="#E1E1E1" d="M663.556 459.888C682.562 459.867 711.408 456.845 725.752 471.267C741.327 486.926 739.734 514.08 724.731 529.626C709.89 543.773 683.307 541.211 663.683 541.387C662.904 515.521 663.569 486.008 663.556 459.888Z"/><path d="M243.158 411.188C255.766 411.481 268.391 411.109 280.995 411.397C283.203 411.448 286.681 411.536 288.301 413.278C294.196 419.616 285.582 469.211 292.865 476.172C294.382 477.621 296.611 477.806 298.607 477.957C308.42 478.699 318.778 477.644 328.661 477.628C336.63 477.614 344.862 478.511 352.79 478.021C355.389 477.861 357.995 477.589 359.567 475.254C365.401 466.585 357.344 419.351 363.552 412.315C366.264 410.978 376.345 411.377 379.725 411.422C389.503 411.551 399.458 411.239 409.21 411.639C412.751 411.784 413.55 417.847 413.538 420.105C413.453 437.104 413.38 454.078 413.389 471.071L413.441 547.496C413.46 553.225 414.068 582.34 412.806 586.563C412.578 586.778 412.356 586.999 412.123 587.208C411.24 588.002 410.451 588.306 409.288 588.459C403.242 589.252 396.878 588.587 390.784 588.626C383.496 588.674 376.002 589.234 368.737 588.856C367.119 588.772 364.242 588.672 362.97 587.478C357.765 582.594 365.674 537.193 358.792 531.238C357.398 530.031 355.187 529.896 353.439 529.762C342.196 528.9 330.366 529.829 319.051 529.816C312.122 529.808 303.996 528.595 297.234 529.712C293.545 530.321 292.152 531.478 290.056 534.514C289.914 540.683 291.687 587.877 287.556 588.104C279.681 588.537 245.796 590.232 239.499 588.149C237.041 583.311 237.757 567.367 237.76 561.23L237.761 527.685L237.698 434.602C237.742 429.744 237.481 424.977 237.47 420.135C237.46 415.45 238.377 412.355 243.158 411.188Z"/><path d="M429.48 411.549C436.084 410.924 475.875 410.499 479.33 412.977C482.329 418.149 481.436 432.503 481.437 438.986L481.397 485.565C481.364 514.313 480.019 544.593 521.987 539.314C549.713 535.827 545.552 497.977 545.537 477.429L545.425 431.057C545.4 425.761 543.461 411.384 551.267 411.466C565.474 411.507 579.728 411.397 593.93 411.382C601.968 411.373 599.852 427.709 599.82 433.497L599.665 462.375C599.414 496.55 604.038 530.461 582.607 559.735C570.471 576.314 551.815 586.607 531.648 589.377C507.458 592.378 477.766 590.692 457.645 575.356C430.089 554.352 427.369 523.877 427.355 492.198L427.325 457.321L427.263 431.13C427.255 425.526 426.225 415.878 429.48 411.549Z"/><path d="M861.803 411.173C870.521 411.166 904.181 409.832 909.897 412.172C911.459 414.363 912.793 417.067 913.803 419.557C929.018 457.062 943.958 494.76 959.198 532.246C964.437 544.873 969.555 557.551 974.55 570.277C982.114 589.489 983.904 588.989 962.579 589.046L935.471 589.06C933.486 589.047 927.529 589.138 926.218 587.929C922.461 584.461 920.52 577.739 918.646 573.15C915.971 566.599 913.47 560.17 910.908 553.677C905.388 539.827 899.716 526.039 893.893 512.314C891.946 507.629 886.948 491.596 881.63 491.684C878.475 494.446 874.294 506.707 872.469 511.329C869.937 517.73 866.659 525.047 863.946 531.154C859.468 541.235 858.963 543.513 871.284 543.033C874.892 542.892 879.114 542.748 882.752 542.933C884.496 543.021 886.056 543.454 887.026 544.959C891.345 551.041 894.766 557.813 898.654 564.182C902.012 569.8 905.598 575.41 908.619 581.169C909.31 582.8 910.57 585.548 910.207 587.319C909.963 588.505 907.175 589.313 906.099 589.268C898.975 588.969 891.849 588.87 884.717 588.864C862.27 588.953 839.823 588.927 817.377 588.788C810.336 588.764 803.132 588.974 796.214 588.921C788.79 588.864 784.186 588.576 787.446 580.141C791.155 570.547 795.207 561.125 799.183 551.698L821.009 499.748L843.309 446.752C847.695 436.208 852.137 425.232 856.834 414.787C857.791 412.661 859.695 411.812 861.803 411.173Z"/><path d="M158.841 411.125C166.219 410.635 214.682 410.142 219.18 411.591C221.715 414.004 221.963 416.663 219.975 419.428C215.86 425.151 210.736 430.648 206.259 436.119L169.292 481.101C164.984 486.326 158.053 493.697 155.155 499.546C159.24 505.374 166.597 513.565 171.351 519.106C183.793 533.403 196.158 547.767 208.444 562.197C213.327 567.987 219.894 575.209 224.157 581.218C226.208 585.941 224.339 589.161 219.007 589.037C201.827 588.612 182.673 589.413 165.784 588.966C161.259 588.846 136.701 559.124 132.525 554.366L113.647 532.689C109.842 528.34 105.377 523.643 101.959 519.054C101.392 507.581 101.782 492.892 101.804 481.134C106.861 473.447 117.364 461.737 123.345 453.989C133.676 440.607 144.859 427.086 155.515 413.917C156.416 412.804 157.613 411.869 158.841 411.125Z"/><path d="M48.3828 411.061C62.9351 410.315 79.9719 410.817 94.5405 411.499C97.9133 411.657 97.9304 417.672 97.9565 420.459C98.1773 444.007 97.6757 467.572 97.551 491.118C97.1152 520.822 98.5321 556.672 97.1532 586.637C97.1015 587.762 95.3379 588.437 94.4166 588.877C87.3458 588.923 48.8646 590.035 45.1383 587.461C42.9437 576.254 43.9531 556.443 43.9497 544.554L44.011 475.485C44.012 458.731 43.3587 432.285 44.3623 414.707C44.4604 412.989 46.8133 411.776 48.3828 411.061Z"/></svg>